<?xml version="1.0" encoding="utf-8"?>
<!-- Generator: Adobe Illustrator 24.0.0, SVG Export Plug-In . SVG Version: 6.00 Build 0)  -->
<svg version="1.1"
	 id="Calque_1" xmlns:cc="http://creativecommons.org/ns#" xmlns:dc="http://purl.org/dc/elements/1.1/" xmlns:inkscape="http://www.inkscape.org/namespaces/inkscape" xmlns:rdf="http://www.w3.org/1999/02/22-rdf-syntax-ns#" xmlns:sodipodi="http://sodipodi.sourceforge.net/DTD/sodipodi-0.dtd" xmlns:svg="http://www.w3.org/2000/svg"
	 xmlns="http://www.w3.org/2000/svg" xmlns:xlink="http://www.w3.org/1999/xlink" x="0px" y="0px" viewBox="0 0 100 125"
	 style="enable-background:new 0 0 100 125;" xml:space="preserve">
<g transform="translate(0,-952.36218)">
	<path d="M9,973.4c-1.1,0-2,0.9-2,2v54c0,1.1,0.9,2,2,2h82c1.1,0,2-0.9,2-2v-54c0-1.1-0.9-2-2-2C91,973.4,9,973.4,9,973.4z
		 M10.5,975.4h79L50,1012C50,1012,10.5,975.4,10.5,975.4z M9,976.7l26.6,24.7L9,1027.9V976.7z M91,976.7v51.2l-26.6-26.6L91,976.7z
		 M37.1,1002.7l12.3,11.4c0.4,0.4,1,0.4,1.4,0l12.3-11.4l26.7,26.7H10.4L37.1,1002.7z"/>
</g>
</svg>
