<?xml version="1.0" encoding="utf-8"?>
<!-- Generator: Adobe Illustrator 24.0.0, SVG Export Plug-In . SVG Version: 6.00 Build 0)  -->
<svg version="1.1" id="Calque_1" xmlns="http://www.w3.org/2000/svg" xmlns:xlink="http://www.w3.org/1999/xlink" x="0px" y="0px"
	 viewBox="0 0 90 112.5" style="enable-background:new 0 0 90 112.5;" xml:space="preserve">
<path d="M58.8,80.4H31.3c-3.2,0-5.8-2.6-5.8-5.8V15.4c0-3.2,2.6-5.8,5.8-5.8h27.5c3.2,0,5.8,2.6,5.8,5.8v59.3
	C64.5,77.8,61.9,80.4,58.8,80.4z M31.3,11.6c-2.1,0-3.8,1.7-3.8,3.8v59.3c0,2.1,1.7,3.8,3.8,3.8h27.5c2.1,0,3.8-1.7,3.8-3.8V15.4
	c0-2.1-1.7-3.8-3.8-3.8C58.8,11.6,31.3,11.6,31.3,11.6z"/>
<path d="M45,77.5c-2.1,0-3.8-1.7-3.8-3.8S42.9,70,45,70s3.8,1.7,3.8,3.8S47.1,77.5,45,77.5z M45,72c-1,0-1.8,0.8-1.8,1.8
	s0.8,1.8,1.8,1.8s1.8-0.8,1.8-1.8S46,72,45,72z"/>
<path d="M54.5,16.6h-19c-0.5,0-0.9-0.4-0.9-0.9s0.4-0.9,0.9-0.9h19c0.5,0,0.9,0.4,0.9,0.9S55,16.6,54.5,16.6z"/>
</svg>
