<?xml version="1.0" encoding="utf-8"?>
<!-- Generator: Adobe Illustrator 24.0.0, SVG Export Plug-In . SVG Version: 6.00 Build 0)  -->
<svg version="1.1" id="Calque_1" xmlns="http://www.w3.org/2000/svg" xmlns:xlink="http://www.w3.org/1999/xlink" x="0px" y="0px"
	 viewBox="0 0 100 125" style="enable-background:new 0 0 100 125;" xml:space="preserve">
<title>Forward</title>
<path d="M24.4,99.2c0.5,0.5,1.2,0.8,2,0.8c0.8,0,1.5-0.3,2-0.8L75.6,52c1.1-1.1,1.1-2.9,0-4c0,0,0,0,0,0L28.4,0.8
	c-1.1-1.1-2.9-1.2-4-0.1s-1.2,2.9-0.1,4c0,0,0.1,0.1,0.1,0.1L69.6,50L24.4,95.2C23.3,96.3,23.3,98,24.4,99.2
	C24.4,99.2,24.4,99.2,24.4,99.2z"/>
</svg>
